<?xml version="1.0" standalone="no"?>
<!DOCTYPE svg PUBLIC "-//W3C//DTD SVG 20010904//EN"
 "http://www.w3.org/TR/2001/REC-SVG-20010904/DTD/svg10.dtd">
<svg version="1.0" xmlns="http://www.w3.org/2000/svg"
 width="512.000000pt" height="512.000000pt" viewBox="0 0 512.000000 512.000000"
 preserveAspectRatio="xMidYMid meet">
<metadata>
Created by potrace 1.11, written by Peter Selinger 2001-2013
</metadata>
<g transform="translate(0.000000,512.000000) scale(0.100000,-0.100000)"
fill="#000000" stroke="none">
<path d="M483 5110 c-37 -15 -64 -87 -100 -265 -24 -122 -24 -410 1 -545 24
-139 61 -269 107 -385 l41 -102 -166 -291 -166 -290 -55 -518 -54 -518 74
-231 c202 -630 245 -757 257 -773 51 -65 674 -755 691 -766 12 -8 225 -106
472 -218 l450 -203 530 0 530 0 430 194 c237 106 449 203 472 215 29 15 131
122 363 381 177 198 332 374 345 390 14 18 84 222 180 519 l157 490 -51 495
c-29 273 -54 508 -57 524 -3 15 -79 156 -169 313 l-163 286 27 62 c158 352
188 782 80 1149 -18 59 -24 70 -55 84 -31 15 -37 15 -67 1 -28 -13 -39 -30
-70 -105 -45 -109 -121 -242 -194 -342 -75 -102 -250 -275 -266 -263 -24 19
-462 338 -473 345 -16 9 -989 217 -1018 217 -37 0 -992 -207 -1018 -221 -12
-7 -124 -86 -247 -176 -155 -114 -228 -162 -241 -158 -10 3 -60 49 -112 103
-140 144 -239 292 -318 473 -54 125 -86 153 -147 129z m2565 -419 l463 -100
199 -146 c110 -81 200 -149 200 -151 0 -12 -170 -84 -235 -100 -84 -21 -115
-48 -115 -100 0 -45 58 -220 101 -306 101 -201 274 -370 458 -448 108 -46 127
-43 201 38 34 37 92 109 127 160 l65 93 130 -226 129 -227 50 -483 51 -483
-149 -462 -148 -462 -322 -362 -323 -361 -437 -197 -438 -197 -486 -1 -486 0
-440 197 -439 198 -304 340 c-166 187 -312 350 -322 361 -11 13 -83 218 -168
484 l-149 462 50 482 50 481 120 211 c66 116 125 219 132 228 11 15 18 9 62
-56 50 -73 116 -155 172 -215 46 -49 88 -45 211 18 246 125 418 347 503 651
36 128 24 148 -105 184 -102 29 -242 92 -230 104 5 4 96 71 202 149 l194 142
451 98 c249 54 466 99 482 100 17 0 238 -44 493 -98z m-2350 -149 c80 -107
222 -246 327 -320 93 -66 244 -145 318 -167 23 -7 43 -19 45 -27 4 -22 -65
-181 -110 -250 -56 -87 -141 -173 -226 -229 -101 -66 -105 -67 -143 -24 -181
206 -321 525 -370 840 -12 79 -14 321 -4 377 l7 38 49 -81 c27 -45 75 -115
107 -157z m3908 -12 c-7 -253 -58 -456 -173 -688 -54 -110 -177 -296 -221
-335 -20 -18 -22 -18 -80 13 -148 79 -282 235 -354 415 -42 105 -43 102 15
121 284 94 599 366 763 661 l38 68 9 -45 c4 -25 6 -119 3 -210z"/>
<path d="M2445 3779 c-235 -32 -442 -135 -600 -301 -170 -177 -264 -380 -283
-607 -27 -313 73 -586 293 -806 140 -140 284 -222 475 -271 115 -29 385 -27
495 4 99 28 261 106 335 161 199 149 345 372 396 606 26 119 24 324 -4 438
-95 385 -400 685 -775 761 -97 20 -247 27 -332 15z m343 -189 c184 -52 353
-169 458 -317 355 -495 97 -1179 -496 -1318 -107 -25 -281 -23 -385 4 -514
135 -781 687 -565 1168 110 243 334 419 610 478 92 20 283 13 378 -15z"/>
<path d="M2263 3262 c-208 -74 -265 -331 -106 -484 111 -107 295 -105 405 5
111 111 111 302 0 410 -77 75 -202 104 -299 69z"/>
<path d="M2855 1581 c-163 -46 -295 -175 -351 -341 -25 -75 -25 -215 0 -290
91 -273 367 -420 629 -337 263 84 413 358 338 617 -77 265 -358 425 -616 351z
m215 -319 l0 -167 -85 -85 -85 -85 -85 85 -85 85 0 126 0 127 158 40 c86 22
163 41 170 41 9 1 12 -39 12 -167z"/>
</g>
</svg>
